<svg xmlns="http://www.w3.org/2000/svg" width="28" height="20" viewBox="0 0 28 20"><title>Shape</title><path d="M28 17.33c0 1.48-1.19 2.67-2.67 2.67H2.67C1.19 20 0 18.81 0 17.33V2.67C0 1.19 1.19 0 2.67 0h22.66C26.81 0 28 1.19 28 2.67z" fill="#3f51b5"/><path d="M11 9.5a6.5 6.5 0 1 1 13 0 6.5 6.5 0 0 1-13 0z" fill="#ffc107"/><path d="M13.01 13.67c-.31-.41-.58-.86-.78-1.34h3.55c.18-.42.33-.87.42-1.33h-4.4c-.09-.43-.13-.88-.13-1.33h4.66c0-.46-.04-.91-.13-1.34h-4.4c.1-.46.24-.91.43-1.33h3.55c-.21-.48-.48-.92-.79-1.33h-1.98c.29-.39.62-.75.99-1.07A6.69 6.69 0 0 0 9.67 3C5.98 3 3 5.98 3 9.67a6.66 6.66 0 0 0 6.67 6.66c2.18 0 4.1-1.05 5.32-2.66z" fill="#ff3d00"/></svg>