<svg xmlns="http://www.w3.org/2000/svg" width="23" height="23" viewBox="0 0 23 23"><title>icon</title><path d="M0 11.34c0-2.05.51-3.95 1.52-5.69 1.02-1.74 2.39-3.11 4.13-4.13C7.39.51 9.29 0 11.34 0c2.06 0 3.96.51 5.7 1.52 1.74 1.02 3.11 2.39 4.13 4.13 1.01 1.74 1.52 3.64 1.52 5.69 0 2.06-.51 3.96-1.52 5.7a11.359 11.359 0 0 1-4.13 4.13c-1.74 1.01-3.64 1.52-5.7 1.52-1.09 0-2.16-.16-3.22-.47.59-.92.97-1.73 1.16-2.43.09-.33.35-1.37.79-3.11.2.38.56.71 1.08.99s1.09.43 1.69.43c1.19 0 2.25-.34 3.19-1.02.93-.67 1.66-1.6 2.17-2.78.51-1.18.77-2.51.77-3.99 0-1.12-.3-2.18-.88-3.16-.59-.99-1.44-1.79-2.55-2.41-1.11-.62-2.37-.93-3.77-.93-1.03 0-2 .14-2.89.43-.9.29-1.66.66-2.28 1.14-.63.47-1.17 1.01-1.61 1.63-.45.61-.78 1.25-.99 1.91-.22.66-.32 1.32-.32 1.98 0 1.03.2 1.93.59 2.7.39.78.97 1.33 1.73 1.64.29.12.48.02.56-.29.02-.07.06-.22.12-.46.06-.24.1-.38.11-.44.06-.23.01-.44-.16-.64-.5-.6-.75-1.34-.75-2.23 0-1.48.51-2.76 1.54-3.83 1.03-1.07 2.38-1.6 4.04-1.6 1.49 0 2.65.4 3.48 1.21.83.8 1.25 1.85 1.25 3.14 0 1.68-.34 3.1-1.01 4.27-.68 1.17-1.54 1.76-2.59 1.76-.61 0-1.09-.21-1.45-.64-.37-.43-.48-.94-.34-1.55.08-.34.21-.8.39-1.38.18-.57.33-1.08.44-1.52.12-.44.17-.81.17-1.11 0-.5-.13-.9-.4-1.23-.26-.32-.64-.49-1.13-.49-.61 0-1.13.28-1.55.84-.43.57-.64 1.27-.64 2.1 0 .72.12 1.32.37 1.8l-1.46 6.18c-.17.69-.23 1.56-.2 2.61-2.02-.89-3.66-2.28-4.91-4.15C.63 15.72 0 13.64 0 11.34z" fill="#ad2f30"/></svg>