<svg xmlns="http://www.w3.org/2000/svg" width="28" height="22" viewBox="0 0 28 22"><title>icon</title><path d="M24.7 3.48A5.63 5.63 0 0 0 27.23.41c-1.11.63-2.34 1.09-3.65 1.34A5.825 5.825 0 0 0 19.39 0c-3.18 0-5.75 2.49-5.75 5.55 0 .44.05.86.15 1.27-4.77-.23-9.01-2.44-11.84-5.8-.5.82-.78 1.77-.78 2.79 0 1.93 1.02 3.63 2.56 4.62-.94-.03-1.83-.28-2.6-.69-.01.02-.01.04-.01.07 0 2.69 1.98 4.93 4.61 5.44a5.79 5.79 0 0 1-2.59.1c.73 2.2 2.85 3.81 5.36 3.85a11.756 11.756 0 0 1-7.13 2.38c-.46 0-.92-.02-1.37-.08C2.54 21.08 5.56 22 8.81 22c10.56 0 16.34-8.46 16.34-15.8 0-.24-.01-.48-.02-.72 1.13-.78 2.1-1.76 2.87-2.88-1.03.45-2.14.74-3.3.88z" fill="#1dadeb"/></svg>