<svg xmlns="http://www.w3.org/2000/svg" width="28" height="20" viewBox="0 0 28 20"><title>Shape</title><path d="M27 2.67C27 1.75 26.25 1 25.33 1H2.67C1.75 1 1 1.75 1 2.67v14.66c0 .92.75 1.67 1.67 1.67h22.66c.92 0 1.67-.75 1.67-1.67zM25.33 20H2.67C1.19 20 0 18.81 0 17.33V2.67C0 1.19 1.19 0 2.67 0h22.66C26.81 0 28 1.19 28 2.67v14.66c0 1.48-1.19 2.67-2.67 2.67z" fill="#a5a5a5"/><path d="M27 17.33V2.67C27 1.75 26.25 1 25.33 1H2.67C1.75 1 1 1.75 1 2.67v14.66c0 .92.75 1.67 1.67 1.67h22.66c.92 0 1.67-.75 1.67-1.67z" fill="#fff"/><path d="M7.71 7l-1.75 5.22s-.45-2.21-.49-2.48C4.47 7.46 3 7.59 3 7.59l1.73 6.74h2.11L9.75 7zM10 14.33h1.91L13.07 7h-1.94zM21.14 7L18 14.33h1.9l.39-1.04h2.4l.2 1.04h1.75L23.15 7zm.73 2.11l.54 2.78h-1.59zm-6.17.03c0-.41.33-.71 1.28-.71.62 0 1.33.45 1.33.45l.31-1.54S17.71 7 16.83 7c-2.02 0-3.05.96-3.05 2.18 0 2.21 2.65 1.9 2.65 3.04 0 .19-.16.64-1.26.64-1.11 0-1.84-.41-1.84-.41L13 13.93s.71.4 2.08.4 3.27-1.02 3.27-2.5c0-1.77-2.65-1.9-2.65-2.69z" fill="#1565c0"/><path d="M5.65 10.85l-.64-3.16S4.72 7 3.96 7H1s3.77 1.11 4.65 3.85z" fill="#ffc107"/></svg>