<svg id="SvgjsSvg1025" xmlns="http://www.w3.org/2000/svg" version="1.1" xmlns:xlink="http://www.w3.org/1999/xlink"
     xmlns:svgjs="http://svgjs.com/svgjs" width="22" height="22" viewBox="0 0 22 22">
    <title>icon-12x12</title>
    <desc>Created with Avocode.</desc>
    <defs id="SvgjsDefs1026"></defs>
    <path id="SvgjsPath1027"
          d="M1096 132L1096 110L1118 110L1118 132L1110.67 132L1110.67 124.67L1114.3300000000002 124.67L1114.3300000000002 121L1110.67 121L1110.67 118.3C1110.67 116.42 1114.3300000000002 117.33 1114.3300000000002 117.33L1114.3300000000002 113.67C1110.67 113.67 1109.68 113.74 1108.8300000000002 114.58C1107.9800000000002 115.42 1107.0000000000002 116.78 1107.0000000000002 118.3L1107.0000000000002 121L1103.3300000000002 121L1103.3300000000002 124.67L1107.0000000000002 124.67C1107.0000000000002 124.67 1106.7900000000002 129.1 1107.0000000000002 132Z "
          fill="#3d54a8" fill-opacity="1" transform="matrix(1,0,0,1,-1096,-110)"></path>
</svg>