<svg id="SvgjsSvg1000" xmlns="http://www.w3.org/2000/svg" version="1.1" xmlns:xlink="http://www.w3.org/1999/xlink"
     xmlns:svgjs="http://svgjs.com/svgjs" width="28" height="20" viewBox="0 0 28 20">
    <title>Shape</title>
    <desc>Created with Avocode.</desc>
    <defs id="SvgjsDefs1001"></defs>
    <path id="SvgjsPath1007"
          d="M493 154.33C493 155.81 491.81 157 490.33 157L467.66999999999996 157C466.18999999999994 157 464.99999999999994 155.81 464.99999999999994 154.33L464.99999999999994 139.67000000000002C464.99999999999994 138.19000000000003 466.18999999999994 137.00000000000003 467.66999999999996 137.00000000000003L490.33 137.00000000000003C491.81 137.00000000000003 493 138.19000000000003 493 139.67000000000002Z "
          fill="#3f51b5" fill-opacity="1" transform="matrix(1,0,0,1,-465,-137)"></path>
    <path id="SvgjsPath1008"
          d="M476 146.5C476 142.91015 478.91015 140 482.5 140C486.08985 140 489 142.91015 489 146.5C489 150.08985 486.08985 153 482.5 153C478.91015 153 476 150.08985 476 146.5Z "
          fill="#ffc107" fill-opacity="1" transform="matrix(1,0,0,1,-465,-137)"></path>
    <path id="SvgjsPath1009"
          d="M478.01 150.67C477.7 150.26 477.43 149.80999999999997 477.23 149.32999999999998L480.78000000000003 149.32999999999998C480.96000000000004 148.91 481.11 148.45999999999998 481.20000000000005 147.99999999999997L476.80000000000007 147.99999999999997C476.7100000000001 147.56999999999996 476.6700000000001 147.11999999999998 476.6700000000001 146.66999999999996L481.3300000000001 146.66999999999996C481.3300000000001 146.20999999999995 481.2900000000001 145.75999999999996 481.2000000000001 145.32999999999996L476.8000000000001 145.32999999999996C476.90000000000015 144.86999999999995 477.04000000000013 144.41999999999996 477.23000000000013 143.99999999999994L480.78000000000014 143.99999999999994C480.57000000000016 143.51999999999995 480.3000000000001 143.07999999999996 479.9900000000001 142.66999999999993L478.0100000000001 142.66999999999993C478.3000000000001 142.27999999999994 478.6300000000001 141.91999999999993 479.0000000000001 141.59999999999994C477.8300000000001 140.60999999999993 476.3200000000001 139.99999999999994 474.67000000000013 139.99999999999994C470.98000000000013 139.99999999999994 468.0000000000001 142.97999999999993 468.0000000000001 146.66999999999993C468.0000000000001 150.34999999999994 470.98000000000013 153.32999999999993 474.67000000000013 153.32999999999993C476.85000000000014 153.32999999999993 478.77000000000015 152.27999999999992 479.9900000000001 150.66999999999993Z "
          fill="#ff3d00" fill-opacity="1" transform="matrix(1,0,0,1,-465,-137)"></path>
</svg>