<svg id="SvgjsSvg1019" xmlns="http://www.w3.org/2000/svg" version="1.1" xmlns:xlink="http://www.w3.org/1999/xlink" xmlns:svgjs="http://svgjs.com/svgjs" width="23" height="23" viewBox="0 0 23 23"><title>icon</title><desc>Created with Avocode.</desc><defs id="SvgjsDefs1020"></defs><path id="SvgjsPath1021" d="M1005 121.34C1005 119.29 1005.51 117.39 1006.52 115.65C1007.54 113.91000000000001 1008.91 112.54 1010.65 111.52000000000001C1012.39 110.51 1014.29 110.00000000000001 1016.34 110.00000000000001C1018.4 110.00000000000001 1020.3000000000001 110.51000000000002 1022.0400000000001 111.52000000000001C1023.7800000000001 112.54 1025.15 113.91000000000001 1026.17 115.65C1027.18 117.39 1027.69 119.29 1027.69 121.34C1027.69 123.4 1027.18 125.3 1026.17 127.04C1025.15 128.78 1023.7800000000001 130.15 1022.0400000000001 131.17000000000002C1020.3000000000001 132.18 1018.4000000000001 132.69000000000003 1016.34 132.69000000000003C1015.25 132.69000000000003 1014.1800000000001 132.53000000000003 1013.12 132.22000000000003C1013.71 131.30000000000004 1014.09 130.49000000000004 1014.28 129.79000000000002C1014.37 129.46 1014.63 128.42000000000002 1015.0699999999999 126.68000000000002C1015.27 127.06000000000002 1015.6299999999999 127.39000000000001 1016.15 127.67000000000002C1016.67 127.95000000000002 1017.24 128.10000000000002 1017.84 128.10000000000002C1019.0300000000001 128.10000000000002 1020.09 127.76000000000002 1021.0300000000001 127.08000000000003C1021.96 126.41000000000003 1022.69 125.48000000000003 1023.2 124.30000000000003C1023.71 123.12000000000002 1023.97 121.79000000000002 1023.97 120.31000000000003C1023.97 119.19000000000003 1023.6700000000001 118.13000000000002 1023.09 117.15000000000003C1022.5 116.16000000000004 1021.65 115.36000000000003 1020.5400000000001 114.74000000000004C1019.4300000000001 114.12000000000003 1018.1700000000001 113.81000000000003 1016.7700000000001 113.81000000000003C1015.7400000000001 113.81000000000003 1014.7700000000001 113.95000000000003 1013.8800000000001 114.24000000000004C1012.9800000000001 114.53000000000004 1012.2200000000001 114.90000000000003 1011.6000000000001 115.38000000000004C1010.9700000000001 115.85000000000004 1010.4300000000002 116.39000000000004 1009.9900000000001 117.01000000000003C1009.5400000000001 117.62000000000003 1009.2100000000002 118.26000000000003 1009.0000000000001 118.92000000000003C1008.7800000000001 119.58000000000003 1008.6800000000001 120.24000000000002 1008.6800000000001 120.90000000000003C1008.6800000000001 121.93000000000004 1008.8800000000001 122.83000000000004 1009.2700000000001 123.60000000000004C1009.6600000000001 124.38000000000004 1010.2400000000001 124.93000000000004 1011.0000000000001 125.24000000000004C1011.2900000000001 125.36000000000004 1011.4800000000001 125.26000000000003 1011.5600000000001 124.95000000000003C1011.58 124.88000000000004 1011.62 124.73000000000003 1011.6800000000001 124.49000000000004C1011.74 124.25000000000004 1011.7800000000001 124.11000000000004 1011.7900000000001 124.05000000000004C1011.85 123.82000000000004 1011.8000000000001 123.61000000000004 1011.6300000000001 123.41000000000004C1011.1300000000001 122.81000000000004 1010.8800000000001 122.07000000000004 1010.8800000000001 121.18000000000004C1010.8800000000001 119.70000000000003 1011.3900000000001 118.42000000000003 1012.4200000000001 117.35000000000004C1013.45 116.28000000000004 1014.8000000000001 115.75000000000004 1016.46 115.75000000000004C1017.95 115.75000000000004 1019.11 116.15000000000005 1019.94 116.96000000000004C1020.7700000000001 117.76000000000003 1021.19 118.81000000000003 1021.19 120.10000000000004C1021.19 121.78000000000004 1020.85 123.20000000000003 1020.1800000000001 124.37000000000003C1019.5000000000001 125.54000000000003 1018.6400000000001 126.13000000000004 1017.59 126.13000000000004C1016.98 126.13000000000004 1016.5 125.92000000000004 1016.14 125.49000000000004C1015.77 125.06000000000003 1015.66 124.55000000000004 1015.8 123.94000000000004C1015.88 123.60000000000004 1016.01 123.14000000000004 1016.1899999999999 122.56000000000004C1016.3699999999999 121.99000000000005 1016.52 121.48000000000005 1016.63 121.04000000000005C1016.75 120.60000000000005 1016.8 120.23000000000005 1016.8 119.93000000000005C1016.8 119.43000000000005 1016.67 119.03000000000004 1016.4 118.70000000000005C1016.14 118.38000000000005 1015.76 118.21000000000005 1015.27 118.21000000000005C1014.66 118.21000000000005 1014.14 118.49000000000005 1013.72 119.05000000000005C1013.2900000000001 119.62000000000005 1013.08 120.32000000000005 1013.08 121.15000000000005C1013.08 121.87000000000005 1013.2 122.47000000000004 1013.45 122.95000000000005L1011.99 129.13000000000005C1011.82 129.82000000000005 1011.76 130.69000000000005 1011.79 131.74000000000007C1009.77 130.85000000000008 1008.13 129.46000000000006 1006.88 127.59000000000006C1005.63 125.72000000000006 1005 123.64000000000006 1005 121.34000000000006Z " fill="#ad2f30" fill-opacity="1" transform="matrix(1,0,0,1,-1005,-110)"></path></svg>