<svg id="SvgjsSvg1022" xmlns="http://www.w3.org/2000/svg" version="1.1" xmlns:xlink="http://www.w3.org/1999/xlink"
     xmlns:svgjs="http://svgjs.com/svgjs" width="28" height="22" viewBox="0 0 28 22">
    <title>icon</title>
    <desc>Created with Avocode.</desc>
    <defs id="SvgjsDefs1023"></defs>
    <path id="SvgjsPath1024"
          d="M1072.7 113.48C1073.89 112.79 1074.8 111.7 1075.23 110.41000000000001C1074.1200000000001 111.04 1072.89 111.50000000000001 1071.58 111.75000000000001C1070.53 110.67000000000002 1069.04 110.00000000000001 1067.3899999999999 110.00000000000001C1064.2099999999998 110.00000000000001 1061.6399999999999 112.49000000000001 1061.6399999999999 115.55000000000001C1061.6399999999999 115.99000000000001 1061.6899999999998 116.41000000000001 1061.79 116.82000000000001C1057.02 116.59 1052.78 114.38000000000001 1049.95 111.02000000000001C1049.45 111.84 1049.17 112.79 1049.17 113.81000000000002C1049.17 115.74000000000002 1050.19 117.44000000000001 1051.73 118.43000000000002C1050.79 118.40000000000002 1049.9 118.15000000000002 1049.13 117.74000000000002C1049.1200000000001 117.76000000000002 1049.1200000000001 117.78000000000003 1049.1200000000001 117.81000000000002C1049.1200000000001 120.50000000000001 1051.1000000000001 122.74000000000001 1053.73 123.25000000000001C1053.25 123.38000000000001 1052.74 123.45000000000002 1052.22 123.45000000000002C1051.8500000000001 123.45000000000002 1051.49 123.41000000000001 1051.14 123.35000000000002C1051.8700000000001 125.55000000000003 1053.99 127.16000000000003 1056.5 127.20000000000002C1054.54 128.69000000000003 1052.06 129.58 1049.37 129.58C1048.9099999999999 129.58 1048.4499999999998 129.56 1048 129.5C1050.54 131.08 1053.56 132 1056.81 132C1067.37 132 1073.1499999999999 123.53999999999999 1073.1499999999999 116.2C1073.1499999999999 115.96000000000001 1073.1399999999999 115.72 1073.1299999999999 115.48C1074.26 114.7 1075.2299999999998 113.72 1075.9999999999998 112.60000000000001C1074.9699999999998 113.05000000000001 1073.8599999999997 113.34 1072.6999999999998 113.48Z "
          fill="#1dadeb" fill-opacity="1" transform="matrix(1,0,0,1,-1048,-110)"></path>
</svg>