<svg id="SvgjsSvg1010" xmlns="http://www.w3.org/2000/svg" version="1.1" xmlns:xlink="http://www.w3.org/1999/xlink"
     xmlns:svgjs="http://svgjs.com/svgjs" width="28" height="20" viewBox="0 0 28 20">
    <title>Shape</title>
    <desc>Created with Avocode.</desc>
    <defs id="SvgjsDefs1011"></defs>
    <path id="SvgjsPath1012"
          d="M525 139.67C525 138.75 524.25 138 523.33 138L500.67 138C499.75 138 499 138.75 499 139.67L499 154.32999999999998C499 155.24999999999997 499.75 155.99999999999997 500.67 155.99999999999997L523.33 155.99999999999997C524.25 155.99999999999997 525 155.24999999999997 525 154.32999999999998ZM523.33 157L500.67 157C499.19 157 498 155.81 498 154.33L498 139.67000000000002C498 138.19000000000003 499.19 137.00000000000003 500.67 137.00000000000003L523.33 137.00000000000003C524.8100000000001 137.00000000000003 526 138.19000000000003 526 139.67000000000002L526 154.33C526 155.81 524.81 157 523.33 157Z "
          fill="#a5a5a5" fill-opacity="1" transform="matrix(1,0,0,1,-498,-137)"></path>
    <path id="SvgjsPath1013"
          d="M525 154.33L525 154.33L525 139.67000000000002C525 138.75000000000003 524.25 138.00000000000003 523.33 138.00000000000003L500.67 138.00000000000003C499.75 138.00000000000003 499 138.75000000000003 499 139.67000000000002L499 154.33C499 155.25 499.75 156 500.67 156L523.33 156C524.25 156 525 155.25 525 154.33Z "
          fill="#ffffff" fill-opacity="1" transform="matrix(1,0,0,1,-498,-137)"></path>
    <path id="SvgjsPath1014"
          d="M505.71 144L503.96 149.22C503.96 149.22 503.51 147.01 503.46999999999997 146.74C502.46999999999997 144.46 500.99999999999994 144.59 500.99999999999994 144.59L502.72999999999996 151.33L502.72999999999996 151.33L504.84 151.33L507.75 144Z "
          fill="#1565c0" fill-opacity="1" transform="matrix(1,0,0,1,-498,-137)"></path>
    <path id="SvgjsPath1015" d="M508 151.33L509.91 151.33L511.07000000000005 144L509.13000000000005 144Z "
          fill="#1565c0" fill-opacity="1" transform="matrix(1,0,0,1,-498,-137)"></path>
    <path id="SvgjsPath1016"
          d="M519.14 144L516 151.33L517.9 151.33L518.29 150.29000000000002L520.6899999999999 150.29000000000002L520.89 151.33L522.64 151.33L521.15 144ZM519.87 146.11L520.41 148.89000000000001L518.8199999999999 148.89000000000001Z "
          fill="#1565c0" fill-opacity="1" transform="matrix(1,0,0,1,-498,-137)"></path>
    <path id="SvgjsPath1017"
          d="M513.7 146.14C513.7 145.73 514.0300000000001 145.42999999999998 514.98 145.42999999999998C515.6 145.42999999999998 516.3100000000001 145.87999999999997 516.3100000000001 145.87999999999997L516.62 144.33999999999997C516.62 144.33999999999997 515.71 143.99999999999997 514.83 143.99999999999997C512.8100000000001 143.99999999999997 511.78000000000003 144.95999999999998 511.78000000000003 146.17999999999998C511.78000000000003 148.39 514.4300000000001 148.07999999999998 514.4300000000001 149.21999999999997C514.4300000000001 149.40999999999997 514.2700000000001 149.85999999999996 513.1700000000001 149.85999999999996C512.0600000000001 149.85999999999996 511.3300000000001 149.44999999999996 511.3300000000001 149.44999999999996L511.0000000000001 150.92999999999995C511.0000000000001 150.92999999999995 511.7100000000001 151.32999999999996 513.0800000000002 151.32999999999996C514.4500000000002 151.32999999999996 516.3500000000001 150.30999999999995 516.3500000000001 148.82999999999996C516.3500000000001 147.05999999999995 513.7000000000002 146.92999999999995 513.7000000000002 146.13999999999996Z "
          fill="#1565c0" fill-opacity="1" transform="matrix(1,0,0,1,-498,-137)"></path>
    <path id="SvgjsPath1018"
          d="M503.65 147.85L503.01 144.69C503.01 144.69 502.71999999999997 144 501.96 144C501.2 144 499 144 499 144C499 144 502.77 145.11 503.65 147.85Z "
          fill="#ffc107" fill-opacity="1" transform="matrix(1,0,0,1,-498,-137)"></path>
</svg>